<?xml version="1.0" encoding="UTF-8" standalone="no"?>
<!DOCTYPE svg PUBLIC "-//W3C//DTD SVG 1.1//EN" "http://www.w3.org/Graphics/SVG/1.1/DTD/svg11.dtd">
<svg width="100%" height="100%" viewBox="0 0 600 200" version="1.1" xmlns="http://www.w3.org/2000/svg" xmlns:xlink="http://www.w3.org/1999/xlink" xml:space="preserve" xmlns:serif="http://www.serif.com/" style="fill-rule:evenodd;clip-rule:evenodd;stroke-linecap:round;stroke-linejoin:round;stroke-miterlimit:1.5;">
    <g transform="matrix(1,0,0,1,-1373.93,-615.272)">
        <g id="Artboard-4" transform="matrix(0.5,0,0,0.166667,1373.93,615.272)">
            <rect x="0" y="0" width="1200" height="1200" style="fill:none;"/>
            <g id="HIVE" transform="matrix(2,0,0,6,-62,0)">
                <g transform="matrix(3.1222,0,0,3.1222,-1004.71,-1573.17)">
                    <path d="M508.312,526.001L500.093,526.001L500.093,538.56L508.09,538.56L500.093,538.56L500.093,558.029L508.16,558.029" style="fill:none;stroke:rgb(255,196,0);stroke-opacity:0.8;stroke-width:1.92px;"/>
                </g>
                <g transform="matrix(3.03058,0,0,2.83384,-1499.54,-1416.25)">
                    <path d="M661.145,524.152L666.241,559.439L670.872,524.152" style="fill:none;stroke:rgb(255,196,0);stroke-opacity:0.8;stroke-width:2.05px;"/>
                </g>
                <g transform="matrix(2.58067,0,0,2.88591,-1201.08,-1444.32)">
                    <path d="M651.656,524.419L651.656,559.07" style="fill:none;stroke:rgb(255,196,0);stroke-opacity:0.8;stroke-width:2.19px;stroke-linejoin:miter;"/>
                </g>
                <g transform="matrix(2.87089,0,0,2.87089,-1385.7,-1436.29)">
                    <path d="M632.709,524.381L632.709,559.199L632.709,538.325L641.823,538.325L641.823,524.366L641.823,559.078" style="fill:none;stroke:rgb(255,196,0);stroke-opacity:0.8;stroke-width:2.09px;"/>
                </g>
            </g>
            <g id="BEE-HIVE" serif:id="BEE HIVE" transform="matrix(4.20884,0,0,11.7009,-1738.12,-4536.75)">
                <g transform="matrix(1.59495,0,0,2.04263,-347.262,-434.444)">
                    <path d="M576.041,412.726C576.041,411.959 575.302,411.337 574.392,411.337L557.216,411.337C556.306,411.337 555.567,411.959 555.567,412.726L555.567,415.504C555.567,416.271 556.306,416.894 557.216,416.894L574.392,416.894C575.302,416.894 576.041,416.271 576.041,415.504L576.041,412.726Z" style="fill:rgb(255,196,0);fill-opacity:0.8;"/>
                </g>
                <g transform="matrix(-1.59495,-1.95325e-16,2.5015e-16,-2.04263,1458.33,1327.15)">
                    <path d="M576.041,412.726C576.041,411.959 575.302,411.337 574.392,411.337L557.216,411.337C556.306,411.337 555.567,411.959 555.567,412.726L555.567,415.504C555.567,416.271 556.306,416.894 557.216,416.894L574.392,416.894C575.302,416.894 576.041,416.271 576.041,415.504L576.041,412.726Z" style="fill:rgb(255,196,0);fill-opacity:0.8;"/>
                </g>
                <g transform="matrix(2.43081,0,0,2.45023,-819.945,-589.976)">
                    <path d="M576.041,412.726C576.041,411.959 575.46,411.337 574.744,411.337L556.865,411.337C556.149,411.337 555.567,411.959 555.567,412.726L555.567,415.504C555.567,416.271 556.149,416.894 556.865,416.894L574.744,416.894C575.46,416.894 576.041,416.271 576.041,415.504L576.041,412.726Z" style="fill:rgb(255,196,0);fill-opacity:0.8;"/>
                </g>
                <g transform="matrix(-2.43081,-2.97689e-16,3.00066e-16,-2.45023,1930.98,1482.65)">
                    <path d="M576.041,412.726C576.041,411.959 575.46,411.337 574.744,411.337L556.865,411.337C556.149,411.337 555.567,411.959 555.567,412.726L555.567,415.504C555.567,416.271 556.149,416.894 556.865,416.894L574.744,416.894C575.46,416.894 576.041,416.271 576.041,415.504L576.041,412.726Z" style="fill:rgb(255,196,0);fill-opacity:0.8;"/>
                </g>
                <g transform="matrix(2.82602,0,0,2.45023,-1043.44,-575.463)">
                    <path d="M576.041,412.726C576.041,411.959 575.541,411.337 574.925,411.337L556.684,411.337C556.068,411.337 555.567,411.959 555.567,412.726L555.567,415.504C555.567,416.271 556.068,416.894 556.684,416.894L574.925,416.894C575.541,416.894 576.041,416.271 576.041,415.504L576.041,412.726Z" style="fill:rgb(255,196,0);fill-opacity:0.8;"/>
                </g>
                <g transform="matrix(-2.82602,-3.46088e-16,3.00066e-16,-2.45023,2154.49,1468.17)">
                    <path d="M576.041,412.726C576.041,411.959 575.541,411.337 574.925,411.337L556.684,411.337C556.068,411.337 555.567,411.959 555.567,412.726L555.567,415.504C555.567,416.271 556.068,416.894 556.684,416.894L574.925,416.894C575.541,416.894 576.041,416.271 576.041,415.504L576.041,412.726Z" style="fill:rgb(255,196,0);fill-opacity:0.8;"/>
                </g>
                <g transform="matrix(1,0,0,1,-0.195705,1.91967)">
                    <path d="M546.872,458.531C546.872,458.531 545.635,448.869 547.093,445.651C548.551,442.432 552.804,439.28 555.62,439.218C558.435,439.156 562.578,442.138 563.987,445.281C565.422,448.483 564.231,458.429 564.231,458.429L546.872,458.531Z" style="fill:white;"/>
                </g>
                <g transform="matrix(1,0,0,1,187.991,6.292)">
                    <path d="M367.209,398.955L367.209,384.365" style="fill:none;stroke:rgb(255,196,0);stroke-opacity:0.8;stroke-width:0.74px;stroke-linecap:butt;stroke-linejoin:miter;"/>
                </g>
            </g>
            <g id="TREE" transform="matrix(5.93564,0,0,17.8069,-2703.29,-8941.98)">
                <g transform="matrix(1,0,0,1.05202,16.1127,-27.9131)">
                    <path d="M508.312,526.001L500.093,526.001L500.093,538.56L508.09,538.56L500.093,538.56L500.093,558.029L508.16,558.029" style="fill:none;stroke:rgb(255,196,0);stroke-opacity:0.8;stroke-width:1.97px;"/>
                </g>
                <g transform="matrix(1,0,0,1.05202,0,-27.9131)">
                    <path d="M508.312,526.001L500.093,526.001L500.093,538.56L508.09,538.56L500.093,538.56L500.093,558.029L508.16,558.029" style="fill:none;stroke:rgb(255,196,0);stroke-opacity:0.8;stroke-width:1.97px;"/>
                </g>
                <g transform="matrix(1,0,0,1,1.68474,0.040726)">
                    <path d="M481.635,525.564L489.455,526.892L489.455,549.543L486.839,549.543L490.538,558.952L486.839,549.543L481.508,549.543L481.508,559.103L481.508,549.543L481.635,525.564Z" style="fill:none;stroke:rgb(255,196,0);stroke-opacity:0.8;stroke-width:2.02px;"/>
                </g>
                <g transform="matrix(1,0,0,1,1.34779,0)">
                    <path d="M458.302,525.74L473.989,525.74L466.378,525.74L466.378,559.144" style="fill:none;stroke:rgb(255,196,0);stroke-opacity:0.8;stroke-width:2.02px;"/>
                </g>
            </g>
        </g>
    </g>
</svg>
