<?xml version="1.0" encoding="UTF-8" standalone="no"?>
<!DOCTYPE svg PUBLIC "-//W3C//DTD SVG 1.1//EN" "http://www.w3.org/Graphics/SVG/1.1/DTD/svg11.dtd">
<svg width="100%" height="100%" viewBox="0 0 130 190" version="1.1" xmlns="http://www.w3.org/2000/svg" xmlns:xlink="http://www.w3.org/1999/xlink" xml:space="preserve" xmlns:serif="http://www.serif.com/" style="fill-rule:evenodd;clip-rule:evenodd;stroke-miterlimit:1.5;">
    <g transform="matrix(1,0,0,1,-1553.66,-906.845)">
        <g id="Artboard-6" transform="matrix(0.108333,0,0,0.158333,1553.66,906.845)">
            <rect x="0" y="0" width="1200" height="1200" style="fill:none;"/>
            <clipPath id="_clip1">
                <rect x="0" y="0" width="1200" height="1200"/>
            </clipPath>
            <g clip-path="url(#_clip1)">
                <g transform="matrix(9.23077,0,0,6.31579,-14341.5,-5727.44)">
                    <rect x="1553.66" y="906.845" width="129.692" height="190" style="fill:none;"/>
                </g>
                <g id="BEE-HIVE" serif:id="BEE HIVE" transform="matrix(19.4254,0,0,12.3167,-10191.3,-4803.54)">
                    <g transform="matrix(1.59495,0,0,2.04263,-347.262,-434.444)">
                        <path d="M576.041,412.726C576.041,411.959 575.302,411.337 574.392,411.337L557.216,411.337C556.306,411.337 555.567,411.959 555.567,412.726L555.567,415.504C555.567,416.271 556.306,416.894 557.216,416.894L574.392,416.894C575.302,416.894 576.041,416.271 576.041,415.504L576.041,412.726Z" style="fill:white;fill-opacity:0.8;"/>
                    </g>
                    <g transform="matrix(-1.59495,-1.95325e-16,2.5015e-16,-2.04263,1458.33,1327.15)">
                        <path d="M576.041,412.726C576.041,411.959 575.302,411.337 574.392,411.337L557.216,411.337C556.306,411.337 555.567,411.959 555.567,412.726L555.567,415.504C555.567,416.271 556.306,416.894 557.216,416.894L574.392,416.894C575.302,416.894 576.041,416.271 576.041,415.504L576.041,412.726Z" style="fill:white;fill-opacity:0.8;"/>
                    </g>
                    <g transform="matrix(2.43081,0,0,2.45023,-819.945,-589.976)">
                        <path d="M576.041,412.726C576.041,411.959 575.46,411.337 574.744,411.337L556.865,411.337C556.149,411.337 555.567,411.959 555.567,412.726L555.567,415.504C555.567,416.271 556.149,416.894 556.865,416.894L574.744,416.894C575.46,416.894 576.041,416.271 576.041,415.504L576.041,412.726Z" style="fill:white;fill-opacity:0.8;"/>
                    </g>
                    <g transform="matrix(-2.43081,-2.97689e-16,3.00066e-16,-2.45023,1930.98,1482.65)">
                        <path d="M576.041,412.726C576.041,411.959 575.46,411.337 574.744,411.337L556.865,411.337C556.149,411.337 555.567,411.959 555.567,412.726L555.567,415.504C555.567,416.271 556.149,416.894 556.865,416.894L574.744,416.894C575.46,416.894 576.041,416.271 576.041,415.504L576.041,412.726Z" style="fill:white;fill-opacity:0.8;"/>
                    </g>
                    <g transform="matrix(2.82602,0,0,2.45023,-1043.44,-575.463)">
                        <path d="M576.041,412.726C576.041,411.959 575.541,411.337 574.925,411.337L556.684,411.337C556.068,411.337 555.567,411.959 555.567,412.726L555.567,415.504C555.567,416.271 556.068,416.894 556.684,416.894L574.925,416.894C575.541,416.894 576.041,416.271 576.041,415.504L576.041,412.726Z" style="fill:white;fill-opacity:0.8;"/>
                    </g>
                    <g transform="matrix(-2.82602,-3.46088e-16,3.00066e-16,-2.45023,2154.49,1468.17)">
                        <path d="M576.041,412.726C576.041,411.959 575.541,411.337 574.925,411.337L556.684,411.337C556.068,411.337 555.567,411.959 555.567,412.726L555.567,415.504C555.567,416.271 556.068,416.894 556.684,416.894L574.925,416.894C575.541,416.894 576.041,416.271 576.041,415.504L576.041,412.726Z" style="fill:white;fill-opacity:0.8;"/>
                    </g>
                    <g transform="matrix(1,0,0,1,-0.195705,1.91967)">
                        <path d="M546.872,458.531C546.872,458.531 545.635,448.869 547.093,445.651C548.551,442.432 552.804,439.28 555.62,439.218C558.435,439.156 562.578,442.138 563.987,445.281C565.422,448.483 564.231,458.429 564.231,458.429L546.872,458.531Z" style="fill:rgb(41,41,41);"/>
                    </g>
                    <g transform="matrix(1,0,0,1,187.991,6.292)">
                        <path d="M367.209,398.955L367.209,384.365" style="fill:none;stroke:white;stroke-opacity:0.8;stroke-width:0.74px;"/>
                    </g>
                </g>
            </g>
        </g>
    </g>
</svg>
